<?xml version="1.0" encoding="UTF-8" standalone="no"?>
<!-- Created with Inkscape (http://www.inkscape.org/) -->

<svg
   xmlns:dc="http://purl.org/dc/elements/1.1/"
   xmlns:cc="http://creativecommons.org/ns#"
   xmlns:rdf="http://www.w3.org/1999/02/22-rdf-syntax-ns#"
   xmlns:svg="http://www.w3.org/2000/svg"
   xmlns="http://www.w3.org/2000/svg"
   xmlns:sodipodi="http://sodipodi.sourceforge.net/DTD/sodipodi-0.dtd"
   xmlns:inkscape="http://www.inkscape.org/namespaces/inkscape"
   width="300"
   height="300"
   viewBox="0 0 300 300"
   id="svg2"
   version="1.1"
   inkscape:version="0.91 r13725"
   sodipodi:docname="water_icon.svg">
  <defs
     id="defs4" />
  <sodipodi:namedview
     id="base"
     pagecolor="#ffffff"
     bordercolor="#666666"
     borderopacity="1.0"
     inkscape:pageopacity="0.0"
     inkscape:pageshadow="2"
     inkscape:zoom="1.979899"
     inkscape:cx="111.27209"
     inkscape:cy="210.77274"
     inkscape:document-units="px"
     inkscape:current-layer="layer1"
     showgrid="false"
     units="px"
     inkscape:window-width="1292"
     inkscape:window-height="746"
     inkscape:window-x="66"
     inkscape:window-y="-8"
     inkscape:window-maximized="1" />
  <metadata
     id="metadata7">
    <rdf:RDF>
      <cc:Work
         rdf:about="">
        <dc:format>image/svg+xml</dc:format>
        <dc:type
           rdf:resource="http://purl.org/dc/dcmitype/StillImage" />
        <dc:title></dc:title>
      </cc:Work>
    </rdf:RDF>
  </metadata>
  <g
     inkscape:label="Layer 1"
     inkscape:groupmode="layer"
     id="layer1"
     transform="translate(0,-752.36216)">
    <path
       style="fill:#009afe;fill-opacity:1"
       d="M 98.652748,1038.3545 C 47.182023,1020.1748 4.7995062,958.82845 4.7995062,902.50722 c 0,-76.92521 68.9407388,-145.86595 145.8659438,-145.86595 35.24069,0 76.05982,17.40636 102.25973,43.60622 109.78201,109.78203 -7.05203,290.10581 -154.272432,238.10701 z m 95.095552,-2.9116 c 32.04874,-9.4691 80.38375,-57.8041 89.85284,-89.85283 16.16388,-54.70761 4.76819,-98.31744 -36.46648,-139.55206 -59.03114,-59.03119 -133.90722,-59.03119 -192.93841,0 -59.0270471,59.02699 -59.0270471,133.84753 0,193.00172 40.928176,41.01637 85.01493,52.51667 139.55205,36.40317 z M 108.64369,978.07587 C 93.150918,962.58304 91.259854,957.29558 93.974069,937.05919 96.840685,915.68726 141.6552,817.63897 151.27424,811.69411 c 2.29395,-1.41776 16.22333,22.0348 30.95421,52.11668 32.21315,65.78257 34.89044,93.17917 11.40118,116.66843 -22.86047,22.86038 -60.79495,21.78768 -84.98594,-2.40335 z"
       id="path3360"
       inkscape:connector-curvature="0" />
  </g>
</svg>
